# xmcd
#
# Track frame offsets:
#	150
#	6727
#	19307
#	25380
#	28512
#	34307
#	56115
#	60930
#	64802
#	76900
#	79945
#	84015
#	89325
#	97095
#	103530
#	109440
#	113247
#	127512
#	133300
#	143640
#	158542
#	164512
#	178060
#	183430
#	204802
#	209417
#	223637
#	230447
#	236117
#	244440
#
# Disc length: 3338 seconds
#
# Revision: 1
# Processed by: cddbd v1.5.1PL0 Copyright (c) Steve Scherf et al.
# Submitted via: CDex 1.50Beta5
#
DISCID=a30d081e
DTITLE=J.S.バッハ - インベンションとシンフォニア
DYEAR=1900
DGENRE=
TTITLE0=BWV 772 a
TTITLE1=BWV 773
TTITLE2=BWV 774
TTITLE3=BWV 775
TTITLE4=BWV 776
TTITLE5=BWV 777
TTITLE6=BWV 778
TTITLE7=BWV 779
TTITLE8=BWV 780
TTITLE9=BWV 781
TTITLE10=BWV 782
TTITLE11=BWV 783
TTITLE12=BWV 784
TTITLE13=BWV 785
TTITLE14=BWV 786
TTITLE15=BWV 787
TTITLE16=BWV 788
TTITLE17=BWV 789
TTITLE18=BWV 790
TTITLE19=BWV 791
TTITLE20=BWV 792
TTITLE21=BWV 793
TTITLE22=BWV 794
TTITLE23=BWV 795
TTITLE24=BWV 796
TTITLE25=BWV 797
TTITLE26=BWV 798
TTITLE27=BWV 799
TTITLE28=BWV 800
TTITLE29=BWV 801
EXTD=
EXTT0=
EXTT1=
EXTT2=
EXTT3=
EXTT4=
EXTT5=
EXTT6=
EXTT7=
EXTT8=
EXTT9=
EXTT10=
EXTT11=
EXTT12=
EXTT13=
EXTT14=
EXTT15=
EXTT16=
EXTT17=
EXTT18=
EXTT19=
EXTT20=
EXTT21=
EXTT22=
EXTT23=
EXTT24=
EXTT25=
EXTT26=
EXTT27=
EXTT28=
EXTT29=
PLAYORDER=
